<svg xmlns="http://www.w3.org/2000/svg" width="1600" height="560" viewBox="0 0 1600 560">
  <defs>
    <linearGradient id="bg" x1="0" y1="0" x2="1" y2="1">
      <stop offset="0" stop-color="#f6f3ea"/>
      <stop offset="0.48" stop-color="#dfeee8"/>
      <stop offset="1" stop-color="#d9e6f3"/>
    </linearGradient>
    <linearGradient id="line" x1="0" y1="0" x2="1" y2="0">
      <stop offset="0" stop-color="#2f6f73"/>
      <stop offset="0.5" stop-color="#4b6b9b"/>
      <stop offset="1" stop-color="#9c6b42"/>
    </linearGradient>
    <filter id="soft" x="-20%" y="-20%" width="140%" height="140%">
      <feDropShadow dx="0" dy="18" stdDeviation="18" flood-color="#334155" flood-opacity="0.16"/>
    </filter>
  </defs>
  <rect width="1600" height="560" fill="url(#bg)"/>
  <g opacity="0.28" stroke="#78909c" stroke-width="1">
    <path d="M0 455 C230 380 385 475 610 372 S1010 280 1600 360" fill="none"/>
    <path d="M0 125 C230 185 420 76 655 162 S1080 246 1600 125" fill="none"/>
    <path d="M210 0 L420 560 M640 0 L560 560 M1060 0 L895 560 M1320 0 L1240 560" fill="none"/>
  </g>
  <g transform="translate(96 86)">
    <text x="0" y="0" font-family="PingFang SC, Hiragino Sans GB, Noto Sans CJK SC, Arial, sans-serif" font-size="38" fill="#2f4f4f" font-weight="700">人生志愿杠杆</text>
    <text x="0" y="56" font-family="Inter, Arial, sans-serif" font-size="25" fill="#4b5563">Life Leverage for College Admission</text>
    <text x="0" y="132" font-family="PingFang SC, Hiragino Sans GB, Noto Sans CJK SC, Arial, sans-serif" font-size="68" fill="#1f2937" font-weight="800">把高考志愿填报</text>
    <text x="0" y="214" font-family="PingFang SC, Hiragino Sans GB, Noto Sans CJK SC, Arial, sans-serif" font-size="68" fill="#1f2937" font-weight="800">做成可核验的决策地图</text>
    <text x="0" y="286" font-family="PingFang SC, Hiragino Sans GB, Noto Sans CJK SC, Arial, sans-serif" font-size="29" fill="#475569">非商用 AI Agent Skill · 规则核验 · 候选池收敛 · 长期人生杠杆</text>
  </g>
  <g transform="translate(965 86)" filter="url(#soft)">
    <rect x="0" y="0" width="510" height="365" rx="28" fill="#ffffff" opacity="0.86"/>
    <path d="M82 285 C155 175 220 222 276 118 C325 28 394 82 442 50" fill="none" stroke="url(#line)" stroke-width="12" stroke-linecap="round"/>
    <g fill="#ffffff" stroke-width="7">
      <circle cx="82" cy="285" r="23" stroke="#2f6f73"/>
      <circle cx="188" cy="211" r="23" stroke="#3f7f87"/>
      <circle cx="276" cy="118" r="23" stroke="#4b6b9b"/>
      <circle cx="365" cy="76" r="23" stroke="#7b6d71"/>
      <circle cx="442" cy="50" r="23" stroke="#9c6b42"/>
    </g>
    <g font-family="PingFang SC, Hiragino Sans GB, Noto Sans CJK SC, Arial, sans-serif" font-size="23" fill="#334155" font-weight="700">
      <text x="40" y="345">安全底线</text>
      <text x="145" y="162">平台</text>
      <text x="245" y="190">专业</text>
      <text x="325" y="140">执行</text>
      <text x="387" y="105">长期复核</text>
    </g>
  </g>
  <g transform="translate(96 485)" font-family="PingFang SC, Hiragino Sans GB, Noto Sans CJK SC, Arial, sans-serif" font-size="22" fill="#475569">
    <text x="0" y="0">不是全国院校数据库 · 不是录取保证 · 优先官方信源 · 源码开放但非商用</text>
  </g>
</svg>
